<svg width="351" height="291" viewBox="0 0 351 291" fill="none" xmlns="http://www.w3.org/2000/svg">
<path fill-rule="evenodd" clip-rule="evenodd" d="M91.4952 0C88.8598 0 86.7234 2.13641 86.7234 4.77181V91.1484C86.7234 140.084 126.393 179.753 175.328 179.753C224.263 179.753 263.933 139.452 263.933 90.5171C263.933 40.8796 223.694 0 174.056 0H91.4952ZM175.312 8.82893C131.257 8.82893 95.5428 44.5426 95.5428 88.5977V90.8875C95.5428 134.943 131.257 170.656 175.312 170.656C219.367 170.656 255.08 134.943 255.08 90.8876V88.5977C255.08 44.5426 219.367 8.82893 175.312 8.82893Z" fill="#53B548"/>
<path d="M242.146 87.6938H109.731C106.684 87.6938 104.374 84.9982 104.976 82.0113C107.112 71.417 112.817 48.7212 124.136 37.6422C139.709 22.4004 154.823 18.2442 176.609 18.671C198.384 19.0976 213.07 24.0693 228.275 39.6604C238.789 50.4405 244.592 71.6823 246.885 81.9152C247.561 84.9318 245.238 87.6938 242.146 87.6938Z" fill="url(#paint0_linear)"/>
<path d="M195.965 46.4669C197.3 40.3562 201.121 36.5856 202.864 35.4641C203.741 34.7891 204.705 35.6079 205.077 36.1017C205.914 39.6678 207.426 47.3567 206.784 49.5842C206.143 51.8118 203.768 53.2771 202.66 53.7313C199.873 53.8559 194.631 52.5776 195.965 46.4669Z" fill="url(#paint1_linear)"/>
<path d="M140.316 50.6808C138.433 45.5604 139.386 41.1474 140.098 39.581C140.405 38.71 141.463 38.9185 141.954 39.1316C144.193 41.4441 148.815 46.5519 149.391 48.4835C149.968 50.415 148.97 52.5023 148.398 53.3045C146.488 54.5634 142.199 55.8012 140.316 50.6808Z" fill="url(#paint2_linear)"/>
<path d="M186.329 70.4021C186.801 64.9857 189.592 61.3048 190.928 60.1415C191.589 59.4606 192.478 60.0574 192.84 60.4409C193.911 63.4192 195.978 69.8739 195.676 71.866C195.374 73.858 193.547 75.389 192.671 75.9055C190.36 76.3279 185.856 75.8185 186.329 70.4021Z" fill="url(#paint3_linear)"/>
<path d="M226.374 73.5312C227.016 67.7396 224.642 63.4239 223.375 61.99C222.771 61.1694 221.629 61.6627 221.133 62.012C219.266 64.9919 215.508 71.4891 215.417 73.6389C215.327 75.7886 217.073 77.6861 217.957 78.3662C220.495 79.1677 225.733 79.3229 226.374 73.5312Z" fill="url(#paint4_linear)"/>
<path d="M168.308 42.5022C167.659 36.2791 170.009 31.5182 171.264 29.9157C171.863 29.0039 172.998 29.4869 173.491 29.8423C175.352 32.9776 179.098 39.8272 179.192 42.1435C179.286 44.4598 178.859 45.9375 176.679 47.3558C174.16 48.3309 168.958 48.7253 168.308 42.5022Z" fill="url(#paint5_linear)"/>
<path d="M125.693 74.8252C124.575 68.7027 126.523 63.702 127.637 61.967C128.156 60.9928 129.311 61.3472 129.824 61.6461C131.897 64.5599 136.112 70.9613 136.383 73.2566C136.653 75.5518 136.346 77.0704 134.308 78.7248C131.902 79.976 126.81 80.9477 125.693 74.8252Z" fill="url(#paint6_linear)"/>
<path d="M159.642 73.8618C157.988 68.0464 159.415 63.0576 160.334 61.2902C160.748 60.3066 161.902 60.5521 162.428 60.7979C164.712 63.4367 169.399 69.2625 169.875 71.455C170.351 73.6476 170.194 75.1387 168.37 76.9056C166.15 78.3141 161.296 79.6772 159.642 73.8618Z" fill="url(#paint7_linear)"/>
<path d="M193.527 93.0605L242.453 93.0335C245.299 93.032 247.559 95.3988 247.304 98.2332C246.785 104.01 245.608 113.309 243.121 119.292C240.585 125.39 235.028 132.059 231.405 136.023C229.564 138.037 226.457 138.019 224.527 136.091L189.996 101.598C186.845 98.4499 189.073 93.0629 193.527 93.0605Z" fill="url(#paint8_linear)"/>
<ellipse cx="205.346" cy="102.614" rx="8.07281" ry="2.8255" transform="rotate(21.0684 205.346 102.614)" fill="#FFF9D5"/>
<path d="M185.954 103.591L220.55 138.187C222.563 140.199 222.486 143.471 220.3 145.294C215.846 149.009 208.435 154.748 202.445 157.216C196.338 159.732 187.693 160.514 182.327 160.752C179.602 160.872 177.419 158.662 177.419 155.934V107.126C177.419 102.672 182.805 100.441 185.954 103.591Z" fill="url(#paint9_linear)"/>
<ellipse cx="187.482" cy="121.205" rx="8.19479" ry="2.8255" transform="rotate(72.0252 187.482 121.205)" fill="#FFF9D5"/>
<path d="M164.034 103.19L129.438 137.786C127.426 139.798 127.503 143.07 129.688 144.893C134.143 148.608 141.553 154.347 147.544 156.815C153.651 159.331 162.296 160.113 167.661 160.35C170.387 160.471 172.57 158.261 172.57 155.533V106.725C172.57 102.271 167.184 100.04 164.034 103.19Z" fill="url(#paint10_linear)"/>
<ellipse cx="162.798" cy="120.276" rx="8.19479" ry="2.8255" transform="rotate(110.924 162.798 120.276)" fill="#FFF9D5"/>
<path d="M157.244 92.7424L108.318 92.7154C105.472 92.7139 103.212 95.0807 103.466 97.9151C103.986 103.692 105.163 112.991 107.65 118.973C110.186 125.072 115.743 131.741 119.366 135.705C121.207 137.719 124.314 137.701 126.244 135.773L160.775 101.28C163.926 98.1318 161.698 92.7448 157.244 92.7424Z" fill="url(#paint11_linear)"/>
<ellipse cx="144.921" cy="102.391" rx="8.19479" ry="2.8255" transform="rotate(161.175 144.921 102.391)" fill="#FFF9D5"/>
<path d="M31.7697 236.14C34.5972 236.676 36.6923 237.245 38.055 237.849C39.4517 238.452 40.4567 239.356 41.0699 240.563C41.7172 241.736 42.0408 243.445 42.0408 245.69C42.0408 248.203 41.5809 250.18 40.6611 251.621C39.7413 253.061 38.2935 254.1 36.3176 254.737C34.3417 255.34 31.6504 255.642 28.2438 255.642C23.6448 255.642 19.3864 255.139 15.4688 254.134V245.187H18.9947L19.8634 250.967C22.5887 251.604 25.4333 251.922 28.3971 251.922C30.918 251.922 32.8258 251.738 34.1203 251.369C35.4489 251.001 36.3517 250.431 36.8286 249.66C37.3055 248.856 37.544 247.767 37.544 246.393C37.544 244.718 37.3396 243.545 36.9308 242.875C36.522 242.205 35.7044 241.685 34.478 241.317C33.2516 240.948 30.8839 240.445 27.3751 239.809L26.0976 239.558C23.3041 239.055 21.1409 238.452 19.6079 237.748C18.1089 237.011 17.0358 236.056 16.3886 234.883C15.7754 233.71 15.4688 232.152 15.4688 230.209C15.4688 227.83 15.9116 225.953 16.7974 224.579C17.7172 223.172 19.148 222.167 21.0898 221.563C23.0316 220.96 25.6206 220.659 28.857 220.659C32.8428 220.659 36.9649 221.094 41.2232 221.966V230.762H37.8506L37.033 225.182C34.4439 224.646 31.6504 224.378 28.6526 224.378C26.302 224.378 24.4964 224.562 23.236 224.931C21.9755 225.266 21.1068 225.802 20.6299 226.539C20.187 227.243 19.9656 228.215 19.9656 229.455C19.9656 230.996 20.187 232.102 20.6299 232.772C21.1068 233.442 21.9585 233.962 23.1849 234.33C24.4453 234.699 26.7789 235.201 30.1856 235.838L31.7697 236.14Z" fill="#53B548"/>
<path d="M76.0295 252.375V255.24H70.3574L69.0288 253.179C67.053 254.15 65.2134 254.854 63.51 255.29C61.8408 255.725 60.1374 255.943 58.4 255.943C56.2197 255.943 54.4994 255.625 53.2389 254.988C52.0125 254.318 51.1268 253.279 50.5817 251.872C50.0366 250.431 49.7641 248.504 49.7641 246.092V234.28L46.2893 232.772V230.008H54.0565V246.645C54.0565 248.622 54.5334 250.062 55.4873 250.967C56.4752 251.838 57.906 252.274 59.7797 252.274C60.972 252.274 62.1303 252.123 63.2545 251.822C64.4128 251.52 66.0821 250.984 68.2623 250.213V234.179L64.7875 232.772V230.008H72.5547V250.967L76.0295 252.375Z" fill="#53B548"/>
<path d="M108.889 252.475V255.24H103.115L92.3329 242.825L86.6608 246.946V250.967L90.1356 252.475V255.24H78.8935V252.475L82.3683 250.967V223.825L78.8935 222.418V219.553H86.6608V242.573L98.7204 233.978L94.4791 232.873V230.008H107.305V232.873L103.83 234.531L95.8077 240.362L105.159 250.967L108.889 252.475Z" fill="#53B548"/>
<path d="M141.003 252.375V255.24H135.33L134.002 253.179C132.026 254.15 130.186 254.854 128.483 255.29C126.814 255.725 125.11 255.943 123.373 255.943C121.193 255.943 119.472 255.625 118.212 254.988C116.985 254.318 116.1 253.279 115.555 251.872C115.01 250.431 114.737 248.504 114.737 246.092V234.28L111.262 232.772V230.008H119.029V246.645C119.029 248.622 119.506 250.062 120.46 250.967C121.448 251.838 122.879 252.274 124.753 252.274C125.945 252.274 127.103 252.123 128.227 251.822C129.386 251.52 131.055 250.984 133.235 250.213V234.179L129.76 232.772V230.008H137.528V250.967L141.003 252.375Z" fill="#53B548"/>
<path d="M191.972 252.475V255.24H184.204V238.603C184.204 236.626 183.762 235.201 182.876 234.33C181.99 233.425 180.679 232.973 178.941 232.973C177.749 232.973 176.642 233.124 175.62 233.425C174.632 233.694 172.996 234.23 170.714 235.034V250.967L174.189 252.475V255.24H166.422V238.603C166.422 236.626 165.979 235.201 165.093 234.33C164.207 233.425 162.896 232.973 161.158 232.973C160 232.973 158.91 233.124 157.888 233.425C156.9 233.694 155.248 234.23 152.931 235.034V250.967L156.406 252.475V255.24H145.164V252.475L148.639 250.967V234.28L145.164 232.873V230.008H150.836L152.165 232.068C154.175 231.063 155.98 230.359 157.581 229.957C159.182 229.522 160.835 229.304 162.538 229.304C164.241 229.304 165.655 229.538 166.779 230.008C167.938 230.477 168.891 231.214 169.641 232.219C171.685 231.18 173.525 230.443 175.16 230.008C176.829 229.538 178.549 229.304 180.321 229.304C182.365 229.304 183.983 229.639 185.175 230.309C186.368 230.946 187.219 231.985 187.73 233.425C188.241 234.833 188.497 236.743 188.497 239.155V250.967L191.972 252.475Z" fill="#53B548"/>
<path d="M223.146 252.475V255.24H217.065L215.737 251.621C214.34 253.028 212.824 254.067 211.189 254.737C209.588 255.407 207.782 255.742 205.772 255.742C202.502 255.742 200.083 255.122 198.516 253.882C196.949 252.643 196.165 250.632 196.165 247.851C196.165 244.902 197.102 242.774 198.976 241.468C200.85 240.127 203.865 239.457 208.021 239.457C209.656 239.457 211.087 239.608 212.313 239.909C213.574 240.177 214.596 240.513 215.379 240.915V238.954C215.379 237.413 215.175 236.223 214.766 235.386C214.391 234.514 213.693 233.895 212.671 233.526C211.683 233.124 210.235 232.923 208.327 232.923C204.887 232.923 201.31 233.325 197.596 234.129V230.51C201.378 229.706 204.989 229.304 208.429 229.304C211.632 229.304 214.033 229.622 215.635 230.259C217.27 230.896 218.343 231.817 218.854 233.023C219.399 234.23 219.671 235.905 219.671 238.05V250.967L223.146 252.475ZM200.662 247.549C200.662 249.191 201.071 250.364 201.889 251.068C202.74 251.771 204.273 252.123 206.488 252.123C208.123 252.123 209.69 251.838 211.189 251.269C212.722 250.666 214.119 249.845 215.379 248.806V243.78C213.471 243.243 211.172 242.975 208.481 242.975C205.517 242.975 203.473 243.344 202.349 244.081C201.224 244.818 200.662 245.974 200.662 247.549Z" fill="#53B548"/>
<path d="M243.655 236.14C246.483 236.676 248.578 237.245 249.941 237.849C251.337 238.452 252.342 239.356 252.956 240.563C253.603 241.736 253.926 243.445 253.926 245.69C253.926 248.203 253.467 250.18 252.547 251.621C251.627 253.061 250.179 254.1 248.203 254.737C246.227 255.34 243.536 255.642 240.129 255.642C235.53 255.642 231.272 255.139 227.354 254.134V245.187H230.88L231.749 250.967C234.474 251.604 237.319 251.922 240.283 251.922C242.804 251.922 244.711 251.738 246.006 251.369C247.335 251.001 248.237 250.431 248.714 249.66C249.191 248.856 249.43 247.767 249.43 246.393C249.43 244.718 249.225 243.545 248.816 242.875C248.408 242.205 247.59 241.685 246.364 241.317C245.137 240.948 242.77 240.445 239.261 239.809L237.983 239.558C235.19 239.055 233.027 238.452 231.494 237.748C229.995 237.011 228.921 236.056 228.274 234.883C227.661 233.71 227.354 232.152 227.354 230.209C227.354 227.83 227.797 225.953 228.683 224.579C229.603 223.172 231.034 222.167 232.975 221.563C234.917 220.96 237.506 220.659 240.743 220.659C244.728 220.659 248.851 221.094 253.109 221.966V230.762H249.736L248.919 225.182C246.33 224.646 243.536 224.378 240.538 224.378C238.188 224.378 236.382 224.562 235.122 224.931C233.861 225.266 232.992 225.802 232.516 226.539C232.073 227.243 231.851 228.215 231.851 229.455C231.851 230.996 232.073 232.102 232.516 232.772C232.992 233.442 233.844 233.962 235.071 234.33C236.331 234.699 238.665 235.201 242.071 235.838L243.655 236.14Z" fill="#53B548"/>
<path d="M264.154 219C265.21 219 266.044 219.302 266.658 219.905C267.305 220.508 267.628 221.362 267.628 222.468C267.628 223.574 267.305 224.428 266.658 225.032C266.044 225.635 265.21 225.936 264.154 225.936C263.098 225.936 262.246 225.635 261.599 225.032C260.985 224.428 260.679 223.574 260.679 222.468C260.679 221.362 260.985 220.508 261.599 219.905C262.246 219.302 263.098 219 264.154 219ZM266.709 250.967L270.183 252.475V255.24H258.941V252.475L262.416 250.967V234.28L258.941 232.873V230.008H266.709V250.967Z" fill="#53B548"/>
<path d="M304.307 252.475V255.24H298.533L287.751 242.825L282.079 246.946V250.967L285.553 252.475V255.24H274.311V252.475L277.786 250.967V223.825L274.311 222.418V219.553H282.079V242.573L294.138 233.978L289.897 232.873V230.008H302.723V232.873L299.248 234.531L291.226 240.362L300.577 250.967L304.307 252.475Z" fill="#53B548"/>
<path d="M336.42 252.375V255.24H330.748L329.42 253.179C327.444 254.15 325.604 254.854 323.901 255.29C322.232 255.725 320.528 255.943 318.791 255.943C316.611 255.943 314.89 255.625 313.63 254.988C312.403 254.318 311.518 253.279 310.973 251.872C310.427 250.431 310.155 248.504 310.155 246.092V234.28L306.68 232.772V230.008H314.447V246.645C314.447 248.622 314.924 250.062 315.878 250.967C316.866 251.838 318.297 252.274 320.171 252.274C321.363 252.274 322.521 252.123 323.645 251.822C324.804 251.52 326.473 250.984 328.653 250.213V234.179L325.178 232.772V230.008H332.946V250.967L336.42 252.375Z" fill="#53B548"/>
<path d="M9.62141 282.412C9.62141 283.475 9.43648 284.403 9.06661 285.198C8.70648 285.983 8.17114 286.596 7.46061 287.036C6.75007 287.477 5.86921 287.697 4.81801 287.697C3.7376 287.697 2.83727 287.477 2.117 287.036C1.40647 286.596 0.876001 285.978 0.525601 285.184C0.1752 284.389 0 283.46 0 282.398C0 281.345 0.1752 280.425 0.525601 279.64C0.876001 278.855 1.40647 278.243 2.117 277.802C2.83727 277.362 3.74247 277.142 4.83261 277.142C5.87407 277.142 6.75007 277.362 7.46061 277.802C8.17114 278.233 8.70648 278.846 9.06661 279.64C9.43648 280.425 9.62141 281.349 9.62141 282.412ZM1.387 282.412C1.387 283.704 1.6644 284.724 2.2192 285.471C2.774 286.208 3.64027 286.577 4.81801 286.577C6.00547 286.577 6.87174 286.208 7.41681 285.471C7.96188 284.724 8.23441 283.704 8.23441 282.412C8.23441 281.12 7.96188 280.109 7.41681 279.382C6.87174 278.645 6.01034 278.276 4.83261 278.276C3.65487 278.276 2.78374 278.645 2.2192 279.382C1.6644 280.109 1.387 281.12 1.387 282.412Z" fill="#4A4A4A" fill-opacity="0.6"/>
<path d="M15.4067 279.712C15.5527 279.712 15.7084 279.722 15.8739 279.741C16.0491 279.75 16.1999 279.77 16.3265 279.798L16.1659 280.962C16.0393 280.933 15.8982 280.909 15.7425 280.89C15.5965 280.871 15.4553 280.861 15.3191 280.861C14.92 280.861 14.5453 280.971 14.1949 281.191C13.8445 281.402 13.5622 281.704 13.3481 282.096C13.1437 282.479 13.0415 282.929 13.0415 283.446V287.553H11.7567V279.856H12.8079L12.9539 281.263H13.0123C13.2653 280.842 13.5914 280.478 13.9905 280.172C14.3895 279.865 14.8616 279.712 15.4067 279.712Z" fill="#4A4A4A" fill-opacity="0.6"/>
<path d="M20.2766 287.697C19.3032 287.697 18.5246 287.366 17.9406 286.706C17.3566 286.036 17.0646 285.04 17.0646 283.719C17.0646 282.398 17.3566 281.402 17.9406 280.732C18.5343 280.052 19.3178 279.712 20.2912 279.712C20.8946 279.712 21.3862 279.822 21.7658 280.042C22.1551 280.263 22.4714 280.531 22.7148 280.847H22.8024C22.7926 280.722 22.7732 280.54 22.744 280.301C22.7245 280.052 22.7148 279.856 22.7148 279.712V276.639H23.9996V287.553H22.963L22.7732 286.519H22.7148C22.4812 286.845 22.1697 287.122 21.7804 287.352C21.391 287.582 20.8898 287.697 20.2766 287.697ZM20.481 286.648C21.3083 286.648 21.8874 286.428 22.2184 285.988C22.559 285.538 22.7294 284.863 22.7294 283.963V283.733C22.7294 282.776 22.5688 282.043 22.2476 281.536C21.9264 281.019 21.3326 280.761 20.4664 280.761C19.7753 280.761 19.2546 281.033 18.9042 281.579C18.5635 282.115 18.3932 282.838 18.3932 283.748C18.3932 284.667 18.5635 285.38 18.9042 285.887C19.2546 286.395 19.7802 286.648 20.481 286.648Z" fill="#4A4A4A" fill-opacity="0.6"/>
<path d="M29.5072 279.712C30.1788 279.712 30.7531 279.856 31.23 280.143C31.7167 280.43 32.0865 280.837 32.3396 281.364C32.6024 281.881 32.7338 282.489 32.7338 283.187V283.949H27.3756C27.3951 284.82 27.6189 285.485 28.0472 285.945C28.4852 286.395 29.0935 286.62 29.8722 286.62C30.3686 286.62 30.8066 286.577 31.1862 286.49C31.5755 286.395 31.9746 286.261 32.3834 286.088V287.194C31.9843 287.366 31.5901 287.491 31.2008 287.568C30.8115 287.654 30.3491 287.697 29.8138 287.697C29.0741 287.697 28.4171 287.548 27.8428 287.252C27.2783 286.955 26.8354 286.514 26.5142 285.93C26.2027 285.337 26.047 284.614 26.047 283.762C26.047 282.919 26.1881 282.197 26.4704 281.593C26.7624 280.99 27.1663 280.526 27.6822 280.2C28.2078 279.875 28.8161 279.712 29.5072 279.712ZM29.4926 280.746C28.8794 280.746 28.3927 280.942 28.0326 281.335C27.6822 281.718 27.4729 282.254 27.4048 282.943H31.3906C31.3809 282.292 31.2251 281.766 30.9234 281.364C30.6217 280.952 30.1447 280.746 29.4926 280.746Z" fill="#4A4A4A" fill-opacity="0.6"/>
<path d="M38.376 279.712C38.522 279.712 38.6778 279.722 38.8432 279.741C39.0184 279.75 39.1693 279.77 39.2958 279.798L39.1352 280.962C39.0087 280.933 38.8676 280.909 38.7118 280.89C38.5658 280.871 38.4247 280.861 38.2884 280.861C37.8894 280.861 37.5146 280.971 37.1642 281.191C36.8138 281.402 36.5316 281.704 36.3174 282.096C36.113 282.479 36.0108 282.929 36.0108 283.446V287.553H34.726V279.856H35.7772L35.9232 281.263H35.9816C36.2347 280.842 36.5608 280.478 36.9598 280.172C37.3589 279.865 37.831 279.712 38.376 279.712Z" fill="#4A4A4A" fill-opacity="0.6"/>
<path d="M43.3233 279.856H44.6957L46.3893 284.236C46.5353 284.619 46.6667 284.987 46.7835 285.342C46.9003 285.686 46.9879 286.017 47.0463 286.333H47.1047C47.1631 286.093 47.2555 285.782 47.3821 285.399C47.5086 285.007 47.64 284.614 47.7763 284.221L49.3677 279.856H50.7547L47.3821 288.616C47.1095 289.343 46.7543 289.923 46.3163 290.354C45.888 290.784 45.2943 291 44.5351 291C44.3015 291 44.0971 290.985 43.9219 290.957C43.7467 290.938 43.5958 290.914 43.4693 290.885V289.88C43.5763 289.899 43.7029 289.918 43.8489 289.937C44.0046 289.956 44.1652 289.966 44.3307 289.966C44.7784 289.966 45.1385 289.841 45.4111 289.592C45.6933 289.343 45.9123 289.013 46.0681 288.602L46.4769 287.582L43.3233 279.856Z" fill="#4A4A4A" fill-opacity="0.6"/>
<path d="M58.7959 283.69C58.7959 284.963 58.4649 285.95 57.8031 286.648C57.1509 287.347 56.2652 287.697 55.1459 287.697C54.4548 287.697 53.8367 287.544 53.2917 287.237C52.7563 286.921 52.3329 286.467 52.0215 285.873C51.71 285.27 51.5543 284.542 51.5543 283.69C51.5543 282.417 51.8803 281.435 52.5325 280.746C53.1846 280.057 54.0703 279.712 55.1897 279.712C55.9002 279.712 56.5231 279.87 57.0585 280.186C57.6035 280.492 58.0269 280.942 58.3287 281.536C58.6401 282.12 58.7959 282.838 58.7959 283.69ZM52.8829 283.69C52.8829 284.6 53.0629 285.322 53.4231 285.859C53.7929 286.385 54.3769 286.648 55.1751 286.648C55.9635 286.648 56.5426 286.385 56.9125 285.859C57.2823 285.322 57.4673 284.6 57.4673 283.69C57.4673 282.781 57.2823 282.067 56.9125 281.55C56.5426 281.033 55.9586 280.775 55.1605 280.775C54.3623 280.775 53.7832 281.033 53.4231 281.55C53.0629 282.067 52.8829 282.781 52.8829 283.69Z" fill="#4A4A4A" fill-opacity="0.6"/>
<path d="M67.3729 279.856V287.553H66.3217L66.1319 286.534H66.0735C65.8204 286.936 65.47 287.232 65.0223 287.424C64.5746 287.606 64.0976 287.697 63.5915 287.697C62.6474 287.697 61.9368 287.477 61.4599 287.036C60.983 286.586 60.7445 285.873 60.7445 284.896V279.856H62.0439V284.81C62.0439 286.036 62.623 286.648 63.7813 286.648C64.6476 286.648 65.2462 286.409 65.5771 285.93C65.9178 285.452 66.0881 284.762 66.0881 283.862V279.856H67.3729Z" fill="#4A4A4A" fill-opacity="0.6"/>
<path d="M73.5073 279.712C73.6533 279.712 73.8091 279.722 73.9745 279.741C74.1497 279.75 74.3006 279.77 74.4271 279.798L74.2665 280.962C74.14 280.933 73.9989 280.909 73.8431 280.89C73.6971 280.871 73.556 280.861 73.4197 280.861C73.0206 280.861 72.6459 280.971 72.2955 281.191C71.9451 281.402 71.6628 281.704 71.4487 282.096C71.2443 282.479 71.1421 282.929 71.1421 283.446V287.553H69.8573V279.856H70.9085L71.0545 281.263H71.1129C71.366 280.842 71.692 280.478 72.0911 280.172C72.4902 279.865 72.9622 279.712 73.5073 279.712Z" fill="#4A4A4A" fill-opacity="0.6"/>
<path d="M83.2872 280.832H81.3162V287.553H80.0314V280.832H78.659V280.244L80.0314 279.813V279.368C80.0314 278.372 80.2552 277.659 80.703 277.228C81.1507 276.787 81.7736 276.567 82.5718 276.567C82.8832 276.567 83.1655 276.596 83.4186 276.653C83.6814 276.701 83.9052 276.759 84.0902 276.826L83.7544 277.817C83.5986 277.769 83.4186 277.721 83.2142 277.673C83.0098 277.625 82.8005 277.601 82.5864 277.601C82.1581 277.601 81.8369 277.745 81.6228 278.032C81.4184 278.31 81.3162 278.75 81.3162 279.353V279.856H83.2872V280.832Z" fill="#4A4A4A" fill-opacity="0.6"/>
<path d="M87.6635 279.727C88.6174 279.727 89.3231 279.932 89.7805 280.344C90.238 280.756 90.4667 281.412 90.4667 282.311V287.553H89.5323L89.2841 286.462H89.2257C88.885 286.883 88.5249 287.194 88.1453 287.395C87.7754 287.596 87.2596 287.697 86.5977 287.697C85.8872 287.697 85.2983 287.515 84.8311 287.151C84.3639 286.778 84.1303 286.198 84.1303 285.413C84.1303 284.648 84.4369 284.059 85.0501 283.647C85.6633 283.226 86.6074 282.996 87.8825 282.958L89.2111 282.915V282.455C89.2111 281.814 89.07 281.368 88.7877 281.12C88.5054 280.871 88.1064 280.746 87.5905 280.746C87.1817 280.746 86.7924 280.808 86.4225 280.933C86.0526 281.048 85.7071 281.182 85.3859 281.335L84.9917 280.387C85.3324 280.205 85.7363 280.052 86.2035 279.928C86.6707 279.794 87.1574 279.727 87.6635 279.727ZM89.1965 283.791L88.0431 283.834C87.0698 283.872 86.3933 284.025 86.0137 284.293C85.6438 284.561 85.4589 284.94 85.4589 285.428C85.4589 285.859 85.5903 286.175 85.8531 286.376C86.1256 286.577 86.4712 286.677 86.8897 286.677C87.5516 286.677 88.1015 286.5 88.5395 286.146C88.9775 285.782 89.1965 285.227 89.1965 284.48V283.791Z" fill="#4A4A4A" fill-opacity="0.6"/>
<path d="M94.6065 287.553L91.6427 279.856H93.0151L94.6795 284.394C94.7574 284.604 94.8401 284.839 94.9277 285.097C95.0153 285.356 95.0932 285.605 95.1613 285.844C95.2294 286.074 95.2781 286.27 95.3073 286.433H95.3657C95.4046 286.27 95.4582 286.069 95.5263 285.83C95.6042 285.591 95.6869 285.342 95.7745 285.083C95.8718 284.825 95.9546 284.595 96.0227 284.394L97.6871 279.856H99.0595L96.0811 287.553H94.6065Z" fill="#4A4A4A" fill-opacity="0.6"/>
<path d="M107.101 283.69C107.101 284.963 106.77 285.95 106.109 286.648C105.456 287.347 104.571 287.697 103.451 287.697C102.76 287.697 102.142 287.544 101.597 287.237C101.062 286.921 100.638 286.467 100.327 285.873C100.016 285.27 99.8598 284.542 99.8598 283.69C99.8598 282.417 100.186 281.435 100.838 280.746C101.49 280.057 102.376 279.712 103.495 279.712C104.206 279.712 104.829 279.87 105.364 280.186C105.909 280.492 106.332 280.942 106.634 281.536C106.946 282.12 107.101 282.838 107.101 283.69ZM101.188 283.69C101.188 284.6 101.368 285.322 101.729 285.859C102.098 286.385 102.682 286.648 103.481 286.648C104.269 286.648 104.848 286.385 105.218 285.859C105.588 285.322 105.773 284.6 105.773 283.69C105.773 282.781 105.588 282.067 105.218 281.55C104.848 281.033 104.264 280.775 103.466 280.775C102.668 280.775 102.089 281.033 101.729 281.55C101.368 282.067 101.188 282.781 101.188 283.69Z" fill="#4A4A4A" fill-opacity="0.6"/>
<path d="M115.678 279.856V287.553H114.627L114.437 286.534H114.379C114.126 286.936 113.776 287.232 113.328 287.424C112.88 287.606 112.403 287.697 111.897 287.697C110.953 287.697 110.242 287.477 109.765 287.036C109.288 286.586 109.05 285.873 109.05 284.896V279.856H110.349V284.81C110.349 286.036 110.929 286.648 112.087 286.648C112.953 286.648 113.552 286.409 113.883 285.93C114.223 285.452 114.394 284.762 114.394 283.862V279.856H115.678Z" fill="#4A4A4A" fill-opacity="0.6"/>
<path d="M121.813 279.712C121.959 279.712 122.115 279.722 122.28 279.741C122.455 279.75 122.606 279.77 122.733 279.798L122.572 280.962C122.446 280.933 122.304 280.909 122.149 280.89C122.003 280.871 121.862 280.861 121.725 280.861C121.326 280.861 120.951 280.971 120.601 281.191C120.251 281.402 119.968 281.704 119.754 282.096C119.55 282.479 119.448 282.929 119.448 283.446V287.553H118.163V279.856H119.214L119.36 281.263H119.418C119.671 280.842 119.998 280.478 120.397 280.172C120.796 279.865 121.268 279.712 121.813 279.712Z" fill="#4A4A4A" fill-opacity="0.6"/>
<path d="M124.851 276.969C125.046 276.969 125.216 277.036 125.362 277.17C125.518 277.295 125.595 277.496 125.595 277.773C125.595 278.042 125.518 278.243 125.362 278.377C125.216 278.511 125.046 278.578 124.851 278.578C124.637 278.578 124.457 278.511 124.311 278.377C124.165 278.243 124.092 278.042 124.092 277.773C124.092 277.496 124.165 277.295 124.311 277.17C124.457 277.036 124.637 276.969 124.851 276.969ZM125.479 279.856V287.553H124.194V279.856H125.479Z" fill="#4A4A4A" fill-opacity="0.6"/>
<path d="M130.571 286.663C130.766 286.663 130.966 286.648 131.17 286.62C131.374 286.581 131.54 286.543 131.666 286.505V287.467C131.53 287.534 131.335 287.587 131.082 287.625C130.829 287.673 130.586 287.697 130.352 287.697C129.944 287.697 129.564 287.63 129.214 287.496C128.873 287.352 128.595 287.108 128.381 286.763C128.167 286.419 128.06 285.935 128.06 285.313V280.832H126.951V280.229L128.075 279.727L128.586 278.089H129.345V279.856H131.608V280.832H129.345V285.284C129.345 285.753 129.457 286.103 129.681 286.333C129.914 286.553 130.211 286.663 130.571 286.663Z" fill="#4A4A4A" fill-opacity="0.6"/>
<path d="M136.256 279.712C136.927 279.712 137.501 279.856 137.978 280.143C138.465 280.43 138.835 280.837 139.088 281.364C139.351 281.881 139.482 282.489 139.482 283.187V283.949H134.124C134.143 284.82 134.367 285.485 134.796 285.945C135.234 286.395 135.842 286.62 136.621 286.62C137.117 286.62 137.555 286.577 137.935 286.49C138.324 286.395 138.723 286.261 139.132 286.088V287.194C138.733 287.366 138.338 287.491 137.949 287.568C137.56 287.654 137.097 287.697 136.562 287.697C135.822 287.697 135.165 287.548 134.591 287.252C134.027 286.955 133.584 286.514 133.263 285.93C132.951 285.337 132.795 284.614 132.795 283.762C132.795 282.919 132.936 282.197 133.219 281.593C133.511 280.99 133.915 280.526 134.431 280.2C134.956 279.875 135.564 279.712 136.256 279.712ZM136.241 280.746C135.628 280.746 135.141 280.942 134.781 281.335C134.431 281.718 134.221 282.254 134.153 282.943H138.139C138.129 282.292 137.973 281.766 137.672 281.364C137.37 280.952 136.893 280.746 136.241 280.746Z" fill="#4A4A4A" fill-opacity="0.6"/>
<path d="M148.873 280.832H146.902V287.553H145.617V280.832H144.245V280.244L145.617 279.813V279.368C145.617 278.372 145.841 277.659 146.289 277.228C146.737 276.787 147.36 276.567 148.158 276.567C148.469 276.567 148.752 276.596 149.005 276.653C149.267 276.701 149.491 276.759 149.676 276.826L149.34 277.817C149.185 277.769 149.005 277.721 148.8 277.673C148.596 277.625 148.386 277.601 148.172 277.601C147.744 277.601 147.423 277.745 147.209 278.032C147.004 278.31 146.902 278.75 146.902 279.353V279.856H148.873V280.832Z" fill="#4A4A4A" fill-opacity="0.6"/>
<path d="M153.936 279.712C154.082 279.712 154.237 279.722 154.403 279.741C154.578 279.75 154.729 279.77 154.856 279.798L154.695 280.962C154.568 280.933 154.427 280.909 154.272 280.89C154.126 280.871 153.984 280.861 153.848 280.861C153.449 280.861 153.074 280.971 152.724 281.191C152.374 281.402 152.091 281.704 151.877 282.096C151.673 282.479 151.571 282.929 151.571 283.446V287.553H150.286V279.856H151.337L151.483 281.263H151.541C151.794 280.842 152.12 280.478 152.52 280.172C152.919 279.865 153.391 279.712 153.936 279.712Z" fill="#4A4A4A" fill-opacity="0.6"/>
<path d="M162.858 279.856V287.553H161.806L161.617 286.534H161.558C161.305 286.936 160.955 287.232 160.507 287.424C160.059 287.606 159.582 287.697 159.076 287.697C158.132 287.697 157.422 287.477 156.945 287.036C156.468 286.586 156.229 285.873 156.229 284.896V279.856H157.529V284.81C157.529 286.036 158.108 286.648 159.266 286.648C160.132 286.648 160.731 286.409 161.062 285.93C161.402 285.452 161.573 284.762 161.573 283.862V279.856H162.858Z" fill="#4A4A4A" fill-opacity="0.6"/>
<path d="M165.999 276.969C166.194 276.969 166.364 277.036 166.51 277.17C166.666 277.295 166.744 277.496 166.744 277.773C166.744 278.042 166.666 278.243 166.51 278.377C166.364 278.511 166.194 278.578 165.999 278.578C165.785 278.578 165.605 278.511 165.459 278.377C165.313 278.243 165.24 278.042 165.24 277.773C165.24 277.496 165.313 277.295 165.459 277.17C165.605 277.036 165.785 276.969 165.999 276.969ZM166.627 279.856V287.553H165.342V279.856H166.627Z" fill="#4A4A4A" fill-opacity="0.6"/>
<path d="M171.719 286.663C171.914 286.663 172.114 286.648 172.318 286.62C172.522 286.581 172.688 286.543 172.814 286.505V287.467C172.678 287.534 172.484 287.587 172.23 287.625C171.977 287.673 171.734 287.697 171.5 287.697C171.092 287.697 170.712 287.63 170.362 287.496C170.021 287.352 169.744 287.108 169.529 286.763C169.315 286.419 169.208 285.935 169.208 285.313V280.832H168.099V280.229L169.223 279.727L169.734 278.089H170.493V279.856H172.756V280.832H170.493V285.284C170.493 285.753 170.605 286.103 170.829 286.333C171.062 286.553 171.359 286.663 171.719 286.663Z" fill="#4A4A4A" fill-opacity="0.6"/>
<path d="M179.477 285.428C179.477 286.175 179.195 286.739 178.63 287.122C178.066 287.505 177.306 287.697 176.352 287.697C175.807 287.697 175.335 287.654 174.936 287.568C174.547 287.481 174.201 287.362 173.9 287.209V286.06C174.211 286.213 174.586 286.356 175.024 286.49C175.472 286.615 175.924 286.677 176.382 286.677C177.034 286.677 177.506 286.577 177.798 286.376C178.09 286.165 178.236 285.887 178.236 285.543C178.236 285.351 178.182 285.179 178.075 285.026C177.968 284.872 177.774 284.719 177.491 284.566C177.219 284.413 176.825 284.241 176.309 284.049C175.803 283.858 175.369 283.666 175.009 283.475C174.649 283.283 174.372 283.053 174.177 282.785C173.982 282.517 173.885 282.173 173.885 281.751C173.885 281.1 174.153 280.598 174.688 280.244C175.233 279.889 175.944 279.712 176.82 279.712C177.297 279.712 177.739 279.76 178.148 279.856C178.567 279.942 178.956 280.066 179.316 280.229L178.878 281.234C178.547 281.1 178.202 280.985 177.842 280.89C177.482 280.794 177.112 280.746 176.732 280.746C176.206 280.746 175.803 280.832 175.52 281.005C175.248 281.167 175.111 281.392 175.111 281.68C175.111 281.89 175.175 282.072 175.301 282.225C175.428 282.369 175.637 282.513 175.929 282.656C176.231 282.79 176.63 282.953 177.126 283.144C177.623 283.326 178.046 283.513 178.396 283.704C178.747 283.896 179.015 284.131 179.199 284.408C179.384 284.676 179.477 285.016 179.477 285.428Z" fill="#4A4A4A" fill-opacity="0.6"/>
<path d="M188.767 280.832H186.796V287.553H185.511V280.832H184.138V280.244L185.511 279.813V279.368C185.511 278.372 185.735 277.659 186.182 277.228C186.63 276.787 187.253 276.567 188.051 276.567C188.363 276.567 188.645 276.596 188.898 276.653C189.161 276.701 189.385 276.759 189.57 276.826L189.234 277.817C189.078 277.769 188.898 277.721 188.694 277.673C188.489 277.625 188.28 277.601 188.066 277.601C187.637 277.601 187.316 277.745 187.102 278.032C186.898 278.31 186.796 278.75 186.796 279.353V279.856H188.767V280.832Z" fill="#4A4A4A" fill-opacity="0.6"/>
<path d="M193.829 279.712C193.975 279.712 194.131 279.722 194.296 279.741C194.472 279.75 194.622 279.77 194.749 279.798L194.588 280.962C194.462 280.933 194.321 280.909 194.165 280.89C194.019 280.871 193.878 280.861 193.742 280.861C193.342 280.861 192.968 280.971 192.617 281.191C192.267 281.402 191.985 281.704 191.771 282.096C191.566 282.479 191.464 282.929 191.464 283.446V287.553H190.179V279.856H191.23L191.376 281.263H191.435C191.688 280.842 192.014 280.478 192.413 280.172C192.812 279.865 193.284 279.712 193.829 279.712Z" fill="#4A4A4A" fill-opacity="0.6"/>
<path d="M202.729 283.69C202.729 284.963 202.398 285.95 201.736 286.648C201.084 287.347 200.198 287.697 199.079 287.697C198.388 287.697 197.77 287.544 197.224 287.237C196.689 286.921 196.266 286.467 195.954 285.873C195.643 285.27 195.487 284.542 195.487 283.69C195.487 282.417 195.813 281.435 196.465 280.746C197.117 280.057 198.003 279.712 199.122 279.712C199.833 279.712 200.456 279.87 200.991 280.186C201.536 280.492 201.96 280.942 202.261 281.536C202.573 282.12 202.729 282.838 202.729 283.69ZM196.816 283.69C196.816 284.6 196.996 285.322 197.356 285.859C197.726 286.385 198.31 286.648 199.108 286.648C199.896 286.648 200.475 286.385 200.845 285.859C201.215 285.322 201.4 284.6 201.4 283.69C201.4 282.781 201.215 282.067 200.845 281.55C200.475 281.033 199.891 280.775 199.093 280.775C198.295 280.775 197.716 281.033 197.356 281.55C196.996 282.067 196.816 282.781 196.816 283.69Z" fill="#4A4A4A" fill-opacity="0.6"/>
<path d="M213.35 279.712C214.235 279.712 214.897 279.937 215.335 280.387C215.773 280.828 215.992 281.546 215.992 282.541V287.553H214.722V282.599C214.722 281.383 214.192 280.775 213.131 280.775C212.371 280.775 211.826 280.99 211.495 281.421C211.174 281.852 211.014 282.479 211.014 283.302V287.553H209.743V282.599C209.743 281.383 209.208 280.775 208.137 280.775C207.349 280.775 206.804 281.014 206.502 281.493C206.201 281.972 206.05 282.661 206.05 283.561V287.553H204.765V279.856H205.801L205.991 280.904H206.064C206.308 280.502 206.634 280.205 207.042 280.014C207.461 279.813 207.904 279.712 208.371 279.712C209.597 279.712 210.396 280.143 210.765 281.005H210.838C211.101 280.564 211.457 280.239 211.904 280.028C212.362 279.817 212.844 279.712 213.35 279.712Z" fill="#4A4A4A" fill-opacity="0.6"/>
<path d="M220.976 279.856H222.348L224.042 284.236C224.188 284.619 224.319 284.987 224.436 285.342C224.553 285.686 224.64 286.017 224.699 286.333H224.757C224.816 286.093 224.908 285.782 225.035 285.399C225.161 285.007 225.293 284.614 225.429 284.221L227.02 279.856H228.407L225.035 288.616C224.762 289.343 224.407 289.923 223.969 290.354C223.541 290.784 222.947 291 222.188 291C221.954 291 221.75 290.985 221.574 290.957C221.399 290.938 221.248 290.914 221.122 290.885V289.88C221.229 289.899 221.355 289.918 221.501 289.937C221.657 289.956 221.818 289.966 221.983 289.966C222.431 289.966 222.791 289.841 223.064 289.592C223.346 289.343 223.565 289.013 223.721 288.602L224.129 287.582L220.976 279.856Z" fill="#4A4A4A" fill-opacity="0.6"/>
<path d="M236.448 283.69C236.448 284.963 236.117 285.95 235.456 286.648C234.803 287.347 233.918 287.697 232.798 287.697C232.107 287.697 231.489 287.544 230.944 287.237C230.409 286.921 229.985 286.467 229.674 285.873C229.363 285.27 229.207 284.542 229.207 283.69C229.207 282.417 229.533 281.435 230.185 280.746C230.837 280.057 231.723 279.712 232.842 279.712C233.553 279.712 234.176 279.87 234.711 280.186C235.256 280.492 235.679 280.942 235.981 281.536C236.293 282.12 236.448 282.838 236.448 283.69ZM230.535 283.69C230.535 284.6 230.715 285.322 231.076 285.859C231.445 286.385 232.029 286.648 232.828 286.648C233.616 286.648 234.195 286.385 234.565 285.859C234.935 285.322 235.12 284.6 235.12 283.69C235.12 282.781 234.935 282.067 234.565 281.55C234.195 281.033 233.611 280.775 232.813 280.775C232.015 280.775 231.436 281.033 231.076 281.55C230.715 282.067 230.535 282.781 230.535 283.69Z" fill="#4A4A4A" fill-opacity="0.6"/>
<path d="M245.025 279.856V287.553H243.974L243.784 286.534H243.726C243.473 286.936 243.123 287.232 242.675 287.424C242.227 287.606 241.75 287.697 241.244 287.697C240.3 287.697 239.589 287.477 239.112 287.036C238.636 286.586 238.397 285.873 238.397 284.896V279.856H239.696V284.81C239.696 286.036 240.276 286.648 241.434 286.648C242.3 286.648 242.899 286.409 243.23 285.93C243.57 285.452 243.741 284.762 243.741 283.862V279.856H245.025Z" fill="#4A4A4A" fill-opacity="0.6"/>
<path d="M251.16 279.712C251.306 279.712 251.462 279.722 251.627 279.741C251.802 279.75 251.953 279.77 252.08 279.798L251.919 280.962C251.793 280.933 251.651 280.909 251.496 280.89C251.35 280.871 251.209 280.861 251.072 280.861C250.673 280.861 250.298 280.971 249.948 281.191C249.598 281.402 249.315 281.704 249.101 282.096C248.897 282.479 248.795 282.929 248.795 283.446V287.553H247.51V279.856H248.561L248.707 281.263H248.765C249.019 280.842 249.345 280.478 249.744 280.172C250.143 279.865 250.615 279.712 251.16 279.712Z" fill="#4A4A4A" fill-opacity="0.6"/>
<path d="M265.918 279.712C266.804 279.712 267.466 279.937 267.904 280.387C268.342 280.828 268.561 281.546 268.561 282.541V287.553H267.291V282.599C267.291 281.383 266.76 280.775 265.699 280.775C264.94 280.775 264.395 280.99 264.064 281.421C263.743 281.852 263.582 282.479 263.582 283.302V287.553H262.312V282.599C262.312 281.383 261.777 280.775 260.706 280.775C259.918 280.775 259.373 281.014 259.071 281.493C258.769 281.972 258.618 282.661 258.618 283.561V287.553H257.334V279.856H258.37L258.56 280.904H258.633C258.876 280.502 259.202 280.205 259.611 280.014C260.03 279.813 260.473 279.712 260.94 279.712C262.166 279.712 262.964 280.143 263.334 281.005H263.407C263.67 280.564 264.025 280.239 264.473 280.028C264.93 279.817 265.412 279.712 265.918 279.712Z" fill="#4A4A4A" fill-opacity="0.6"/>
<path d="M273.942 279.727C274.896 279.727 275.602 279.932 276.059 280.344C276.517 280.756 276.745 281.412 276.745 282.311V287.553H275.811L275.563 286.462H275.504C275.164 286.883 274.803 287.194 274.424 287.395C274.054 287.596 273.538 287.697 272.876 287.697C272.166 287.697 271.577 287.515 271.11 287.151C270.642 286.778 270.409 286.198 270.409 285.413C270.409 284.648 270.715 284.059 271.329 283.647C271.942 283.226 272.886 282.996 274.161 282.958L275.49 282.915V282.455C275.49 281.814 275.348 281.368 275.066 281.12C274.784 280.871 274.385 280.746 273.869 280.746C273.46 280.746 273.071 280.808 272.701 280.933C272.331 281.048 271.986 281.182 271.664 281.335L271.27 280.387C271.611 280.205 272.015 280.052 272.482 279.928C272.949 279.794 273.436 279.727 273.942 279.727ZM275.475 283.791L274.322 283.834C273.348 283.872 272.672 284.025 272.292 284.293C271.922 284.561 271.737 284.94 271.737 285.428C271.737 285.859 271.869 286.175 272.132 286.376C272.404 286.577 272.75 286.677 273.168 286.677C273.83 286.677 274.38 286.5 274.818 286.146C275.256 285.782 275.475 285.227 275.475 284.48V283.791Z" fill="#4A4A4A" fill-opacity="0.6"/>
<path d="M287.747 279.712C288.633 279.712 289.295 279.937 289.733 280.387C290.171 280.828 290.39 281.546 290.39 282.541V287.553H289.119V282.599C289.119 281.383 288.589 280.775 287.528 280.775C286.769 280.775 286.224 280.99 285.893 281.421C285.572 281.852 285.411 282.479 285.411 283.302V287.553H284.141V282.599C284.141 281.383 283.606 280.775 282.535 280.775C281.746 280.775 281.201 281.014 280.9 281.493C280.598 281.972 280.447 282.661 280.447 283.561V287.553H279.162V279.856H280.199L280.389 280.904H280.462C280.705 280.502 281.031 280.205 281.44 280.014C281.858 279.813 282.301 279.712 282.768 279.712C283.995 279.712 284.793 280.143 285.163 281.005H285.236C285.499 280.564 285.854 280.239 286.302 280.028C286.759 279.817 287.241 279.712 287.747 279.712Z" fill="#4A4A4A" fill-opacity="0.6"/>
<path d="M295.771 279.727C296.725 279.727 297.43 279.932 297.888 280.344C298.345 280.756 298.574 281.412 298.574 282.311V287.553H297.64L297.391 286.462H297.333C296.992 286.883 296.632 287.194 296.253 287.395C295.883 287.596 295.367 287.697 294.705 287.697C293.994 287.697 293.406 287.515 292.938 287.151C292.471 286.778 292.238 286.198 292.238 285.413C292.238 284.648 292.544 284.059 293.157 283.647C293.771 283.226 294.715 282.996 295.99 282.958L297.318 282.915V282.455C297.318 281.814 297.177 281.368 296.895 281.12C296.613 280.871 296.214 280.746 295.698 280.746C295.289 280.746 294.9 280.808 294.53 280.933C294.16 281.048 293.814 281.182 293.493 281.335L293.099 280.387C293.44 280.205 293.844 280.052 294.311 279.928C294.778 279.794 295.265 279.727 295.771 279.727ZM297.304 283.791L296.15 283.834C295.177 283.872 294.501 284.025 294.121 284.293C293.751 284.561 293.566 284.94 293.566 285.428C293.566 285.859 293.698 286.175 293.96 286.376C294.233 286.577 294.578 286.677 294.997 286.677C295.659 286.677 296.209 286.5 296.647 286.146C297.085 285.782 297.304 285.227 297.304 284.48V283.791Z" fill="#4A4A4A" fill-opacity="0.6"/>
<path d="M313.368 279.712C314.254 279.712 314.916 279.937 315.354 280.387C315.792 280.828 316.011 281.546 316.011 282.541V287.553H314.741V282.599C314.741 281.383 314.21 280.775 313.149 280.775C312.39 280.775 311.845 280.99 311.514 281.421C311.193 281.852 311.032 282.479 311.032 283.302V287.553H309.762V282.599C309.762 281.383 309.227 280.775 308.156 280.775C307.368 280.775 306.823 281.014 306.521 281.493C306.219 281.972 306.068 282.661 306.068 283.561V287.553H304.784V279.856H305.82L306.01 280.904H306.083C306.326 280.502 306.652 280.205 307.061 280.014C307.48 279.813 307.923 279.712 308.39 279.712C309.616 279.712 310.414 280.143 310.784 281.005H310.857C311.12 280.564 311.475 280.239 311.923 280.028C312.38 279.817 312.862 279.712 313.368 279.712Z" fill="#4A4A4A" fill-opacity="0.6"/>
<path d="M319.713 276.639V279.296C319.713 279.621 319.703 279.928 319.684 280.215C319.674 280.492 319.66 280.713 319.64 280.875H319.713C319.937 280.55 320.244 280.277 320.633 280.057C321.022 279.837 321.523 279.727 322.137 279.727C323.11 279.727 323.889 280.062 324.473 280.732C325.066 281.392 325.363 282.383 325.363 283.704C325.363 285.026 325.066 286.021 324.473 286.692C323.879 287.362 323.1 287.697 322.137 287.697C321.523 287.697 321.022 287.587 320.633 287.366C320.244 287.146 319.937 286.883 319.713 286.577H319.611L319.348 287.553H318.428V276.639H319.713ZM321.918 280.775C321.09 280.775 320.516 281.009 320.195 281.479C319.874 281.948 319.713 282.675 319.713 283.661V283.719C319.713 284.667 319.869 285.394 320.18 285.902C320.501 286.4 321.09 286.648 321.947 286.648C322.648 286.648 323.168 286.395 323.509 285.887C323.859 285.38 324.035 284.648 324.035 283.69C324.035 281.747 323.329 280.775 321.918 280.775Z" fill="#4A4A4A" fill-opacity="0.6"/>
<path d="M334.214 283.69C334.214 284.963 333.883 285.95 333.222 286.648C332.569 287.347 331.684 287.697 330.564 287.697C329.873 287.697 329.255 287.544 328.71 287.237C328.175 286.921 327.751 286.467 327.44 285.873C327.128 285.27 326.973 284.542 326.973 283.69C326.973 282.417 327.299 281.435 327.951 280.746C328.603 280.057 329.489 279.712 330.608 279.712C331.319 279.712 331.942 279.87 332.477 280.186C333.022 280.492 333.445 280.942 333.747 281.536C334.059 282.12 334.214 282.838 334.214 283.69ZM328.301 283.69C328.301 284.6 328.481 285.322 328.842 285.859C329.211 286.385 329.795 286.648 330.594 286.648C331.382 286.648 331.961 286.385 332.331 285.859C332.701 285.322 332.886 284.6 332.886 283.69C332.886 282.781 332.701 282.067 332.331 281.55C331.961 281.033 331.377 280.775 330.579 280.775C329.781 280.775 329.202 281.033 328.842 281.55C328.481 282.067 328.301 282.781 328.301 283.69Z" fill="#4A4A4A" fill-opacity="0.6"/>
<path d="M339.025 279.712C339.54 279.712 340.003 279.808 340.412 279.999C340.83 280.191 341.185 280.483 341.477 280.875H341.55L341.726 279.856H342.748V287.682C342.748 288.783 342.46 289.612 341.886 290.167C341.322 290.722 340.441 291 339.244 291C338.095 291 337.156 290.837 336.426 290.512V289.348C337.195 289.75 338.158 289.951 339.317 289.951C339.988 289.951 340.514 289.755 340.893 289.363C341.283 288.98 341.477 288.453 341.477 287.783V287.481C341.477 287.366 341.482 287.204 341.492 286.993C341.502 286.773 341.511 286.62 341.521 286.534H341.463C340.937 287.309 340.129 287.697 339.039 287.697C338.027 287.697 337.234 287.347 336.659 286.648C336.095 285.95 335.813 284.973 335.813 283.719C335.813 282.493 336.095 281.522 336.659 280.804C337.234 280.076 338.022 279.712 339.025 279.712ZM339.2 280.775C338.548 280.775 338.042 281.033 337.681 281.55C337.321 282.058 337.141 282.785 337.141 283.733C337.141 284.681 337.316 285.409 337.667 285.916C338.027 286.414 338.548 286.663 339.229 286.663C340.017 286.663 340.592 286.457 340.952 286.045C341.312 285.624 341.492 284.949 341.492 284.02V283.719C341.492 282.666 341.307 281.914 340.937 281.464C340.567 281.005 339.988 280.775 339.2 280.775Z" fill="#4A4A4A" fill-opacity="0.6"/>
<path d="M348.197 279.727C349.151 279.727 349.856 279.932 350.314 280.344C350.771 280.756 351 281.412 351 282.311V287.553H350.066L349.817 286.462H349.759C349.418 286.883 349.058 287.194 348.679 287.395C348.309 287.596 347.793 287.697 347.131 287.697C346.42 287.697 345.832 287.515 345.364 287.151C344.897 286.778 344.664 286.198 344.664 285.413C344.664 284.648 344.97 284.059 345.583 283.647C346.197 283.226 347.141 282.996 348.416 282.958L349.744 282.915V282.455C349.744 281.814 349.603 281.368 349.321 281.12C349.039 280.871 348.64 280.746 348.124 280.746C347.715 280.746 347.326 280.808 346.956 280.933C346.586 281.048 346.24 281.182 345.919 281.335L345.525 280.387C345.866 280.205 346.27 280.052 346.737 279.928C347.204 279.794 347.691 279.727 348.197 279.727ZM349.73 283.791L348.576 283.834C347.603 283.872 346.927 284.025 346.547 284.293C346.177 284.561 345.992 284.94 345.992 285.428C345.992 285.859 346.124 286.175 346.386 286.376C346.659 286.577 347.004 286.677 347.423 286.677C348.085 286.677 348.635 286.5 349.073 286.146C349.511 285.782 349.73 285.227 349.73 284.48V283.791Z" fill="#4A4A4A" fill-opacity="0.6"/>
<defs>
<linearGradient id="paint0_linear" x1="176.004" y1="18.6418" x2="176.043" y2="76.8399" gradientUnits="userSpaceOnUse">
<stop stop-color="#D30F10"/>
<stop offset="1" stop-color="#F85C60"/>
</linearGradient>
<linearGradient id="paint1_linear" x1="204.947" y1="35.5519" x2="199.806" y2="53.3935" gradientUnits="userSpaceOnUse">
<stop stop-color="#4E0F18"/>
<stop offset="1" stop-color="#6A141B"/>
</linearGradient>
<linearGradient id="paint2_linear" x1="141.608" y1="38.7755" x2="145.402" y2="54.446" gradientUnits="userSpaceOnUse">
<stop stop-color="#4E0F18"/>
<stop offset="1" stop-color="#6A141B"/>
</linearGradient>
<linearGradient id="paint3_linear" x1="192.674" y1="59.9818" x2="190.177" y2="75.9246" gradientUnits="userSpaceOnUse">
<stop stop-color="#4E0F18"/>
<stop offset="1" stop-color="#6A141B"/>
</linearGradient>
<linearGradient id="paint4_linear" x1="221.422" y1="61.5528" x2="221.591" y2="78.7622" gradientUnits="userSpaceOnUse">
<stop stop-color="#4E0F18"/>
<stop offset="1" stop-color="#6A141B"/>
</linearGradient>
<linearGradient id="paint5_linear" x1="173.203" y1="29.3593" x2="173.814" y2="47.9162" gradientUnits="userSpaceOnUse">
<stop stop-color="#4E0F18"/>
<stop offset="1" stop-color="#6A141B"/>
</linearGradient>
<linearGradient id="paint6_linear" x1="129.503" y1="61.1973" x2="132.189" y2="79.5048" gradientUnits="userSpaceOnUse">
<stop stop-color="#4E0F18"/>
<stop offset="1" stop-color="#6A141B"/>
</linearGradient>
<linearGradient id="paint7_linear" x1="162.074" y1="60.3915" x2="166.188" y2="77.8817" gradientUnits="userSpaceOnUse">
<stop stop-color="#4E0F18"/>
<stop offset="1" stop-color="#6A141B"/>
</linearGradient>
<linearGradient id="paint8_linear" x1="219.377" y1="105.686" x2="244.553" y2="123.004" gradientUnits="userSpaceOnUse">
<stop stop-color="#F9C62F"/>
<stop offset="1" stop-color="#EA941B"/>
</linearGradient>
<linearGradient id="paint9_linear" x1="195.29" y1="130.802" x2="200.83" y2="160.853" gradientUnits="userSpaceOnUse">
<stop stop-color="#F9C62F"/>
<stop offset="1" stop-color="#EA941B"/>
</linearGradient>
<linearGradient id="paint10_linear" x1="154.698" y1="130.401" x2="149.158" y2="160.452" gradientUnits="userSpaceOnUse">
<stop stop-color="#F9C62F"/>
<stop offset="1" stop-color="#EA941B"/>
</linearGradient>
<linearGradient id="paint11_linear" x1="131.394" y1="105.368" x2="106.218" y2="122.686" gradientUnits="userSpaceOnUse">
<stop stop-color="#F9C62F"/>
<stop offset="1" stop-color="#EA941B"/>
</linearGradient>
</defs>
</svg>
